<svg version="1.2" xmlns="http://www.w3.org/2000/svg" viewBox="0 0 1000 1000" width="1000" height="1000">
	<title>5142020-ai</title>
	<style>
		.s0 { fill: #ffffff } 
	</style>
	<g id="BACKGROUND">
	</g>
	<g id="OBJECTS">
		<g id="&lt;Group&gt;">
			<g id="&lt;Group&gt;">
				<path id="&lt;Path&gt;" class="s0" d="m498.7 242.2c79.4-0.1 149.6 40.1 191.3 101.2l-137.9 0.1c-28 0.1-52.4 21.6-53.2 49.6-0.8 28.9 22.4 52.6 51.1 52.6l231.2-0.3c27.8 0 47.9-26.3 41.2-53.3-36.4-144.8-167.9-252.3-323.8-252.1-143.3 0.2-265.8 91.2-312.6 218.5-12.2 33.3 12.1 68.6 47.5 68.6 21.3-0.1 41-12.9 48.3-33 32.4-88.5 117.4-151.8 216.9-151.9z"/>
				<path id="&lt;Path&gt;" class="s0" d="m501.7 758.2c-79.3 0-149.4-40.2-191.1-101.4h137.9c28 0 52.4-21.5 53.2-49.5 0.9-28.9-22.3-52.6-51-52.6h-231.2c-27.8 0-47.9 26.2-41.2 53.2 36.2 144.9 167.5 252.5 323.4 252.5 143.4 0 265.9-90.9 312.9-218.2 12.3-33.2-12-68.6-47.4-68.6-21.3 0-41 12.9-48.3 32.9-32.5 88.4-117.6 151.7-217.2 151.7z"/>
			</g>
		</g>
	</g>
</svg>